<mxfile host="app.diagrams.net" agent="Mozilla/5.0 (Windows NT 10.0; Win64; x64) AppleWebKit/537.36 (KHTML, like Gecko) Chrome/129.0.0.0 Safari/537.36 Edg/129.0.0.0" version="24.7.17">
  <diagram name="Page-1" id="c7488fd3-1785-93aa-aadb-54a6760d102a">
    <mxGraphModel dx="1195" dy="635" grid="1" gridSize="10" guides="1" tooltips="1" connect="1" arrows="1" fold="1" page="1" pageScale="1" pageWidth="1100" pageHeight="850" background="none" math="0" shadow="0">
      <root>
        <mxCell id="0" />
        <mxCell id="1" parent="0" />
        <mxCell id="2b4e8129b02d487f-1" value="AFPV VIL India&amp;nbsp;" style="swimlane;html=1;childLayout=stackLayout;horizontal=1;startSize=20;horizontalStack=0;rounded=0;shadow=0;labelBackgroundColor=none;strokeWidth=1;fontFamily=Verdana;fontSize=8;align=center;fillColor=#fff2cc;strokeColor=#d6b656;" parent="1" vertex="1">
          <mxGeometry x="200" y="10" width="690" height="620" as="geometry" />
        </mxCell>
        <mxCell id="2b4e8129b02d487f-2" value="NDPA" style="swimlane;html=1;startSize=20;horizontal=0;fillColor=#dae8fc;strokeColor=#6c8ebf;gradientColor=none;" parent="2b4e8129b02d487f-1" vertex="1">
          <mxGeometry y="20" width="690" height="100" as="geometry" />
        </mxCell>
        <mxCell id="2b4e8129b02d487f-18" style="edgeStyle=orthogonalEdgeStyle;rounded=0;html=1;labelBackgroundColor=none;startArrow=none;startFill=0;startSize=5;endArrow=classicThin;endFill=1;endSize=5;jettySize=auto;orthogonalLoop=1;strokeWidth=1;fontFamily=Verdana;fontSize=8" parent="2b4e8129b02d487f-2" source="2b4e8129b02d487f-5" target="2b4e8129b02d487f-6" edge="1">
          <mxGeometry relative="1" as="geometry" />
        </mxCell>
        <mxCell id="2b4e8129b02d487f-5" value="Start" style="ellipse;whiteSpace=wrap;html=1;rounded=0;shadow=0;labelBackgroundColor=none;strokeWidth=1;fontFamily=Verdana;fontSize=8;align=center;" parent="2b4e8129b02d487f-2" vertex="1">
          <mxGeometry x="60" y="35" width="30" height="30" as="geometry" />
        </mxCell>
        <mxCell id="2b4e8129b02d487f-6" value="Milestone Trigger" style="rounded=1;whiteSpace=wrap;html=1;shadow=0;labelBackgroundColor=none;strokeWidth=1;fontFamily=Verdana;fontSize=8;align=center;" parent="2b4e8129b02d487f-2" vertex="1">
          <mxGeometry x="120" y="31.49999999999997" width="70" height="37" as="geometry" />
        </mxCell>
        <mxCell id="iS7uTXhmOtBCeSAI_-wE-41" value="Ndap" style="rounded=1;whiteSpace=wrap;html=1;shadow=0;labelBackgroundColor=none;strokeWidth=1;fontFamily=Verdana;fontSize=8;align=center;" vertex="1" parent="2b4e8129b02d487f-2">
          <mxGeometry x="540" y="20" width="110" height="60" as="geometry" />
        </mxCell>
        <mxCell id="2b4e8129b02d487f-3" value="Fleet" style="swimlane;html=1;startSize=20;horizontal=0;" parent="2b4e8129b02d487f-1" vertex="1">
          <mxGeometry y="120" width="690" height="80" as="geometry" />
        </mxCell>
        <mxCell id="2b4e8129b02d487f-12" value="Fleet Manager&amp;nbsp;" style="rounded=1;whiteSpace=wrap;html=1;shadow=0;labelBackgroundColor=none;strokeWidth=1;fontFamily=Verdana;fontSize=8;align=center;" parent="2b4e8129b02d487f-3" vertex="1">
          <mxGeometry x="120" y="21.499999999999957" width="70" height="37" as="geometry" />
        </mxCell>
        <mxCell id="iS7uTXhmOtBCeSAI_-wE-12" value="NESC" style="swimlane;html=1;startSize=20;horizontal=0;" vertex="1" parent="2b4e8129b02d487f-1">
          <mxGeometry y="200" width="690" height="200" as="geometry">
            <mxRectangle y="320" width="680" height="30" as="alternateBounds" />
          </mxGeometry>
        </mxCell>
        <mxCell id="iS7uTXhmOtBCeSAI_-wE-20" value="" style="edgeStyle=orthogonalEdgeStyle;rounded=0;orthogonalLoop=1;jettySize=auto;html=1;" edge="1" parent="iS7uTXhmOtBCeSAI_-wE-12" source="iS7uTXhmOtBCeSAI_-wE-17" target="iS7uTXhmOtBCeSAI_-wE-19">
          <mxGeometry relative="1" as="geometry" />
        </mxCell>
        <mxCell id="iS7uTXhmOtBCeSAI_-wE-17" value="Nifi Flow" style="whiteSpace=wrap;html=1;fontSize=8;fontFamily=Verdana;rounded=1;shadow=0;labelBackgroundColor=none;strokeWidth=1;" vertex="1" parent="iS7uTXhmOtBCeSAI_-wE-12">
          <mxGeometry x="90" y="160" width="570" height="20" as="geometry" />
        </mxCell>
        <mxCell id="iS7uTXhmOtBCeSAI_-wE-22" value="" style="edgeStyle=orthogonalEdgeStyle;rounded=0;orthogonalLoop=1;jettySize=auto;html=1;" edge="1" parent="iS7uTXhmOtBCeSAI_-wE-12" source="iS7uTXhmOtBCeSAI_-wE-19" target="iS7uTXhmOtBCeSAI_-wE-21">
          <mxGeometry relative="1" as="geometry" />
        </mxCell>
        <mxCell id="iS7uTXhmOtBCeSAI_-wE-19" value="TDE" style="whiteSpace=wrap;html=1;fontSize=8;fontFamily=Verdana;rounded=1;shadow=0;labelBackgroundColor=none;strokeWidth=1;" vertex="1" parent="iS7uTXhmOtBCeSAI_-wE-12">
          <mxGeometry x="180" y="50" width="120" height="60" as="geometry" />
        </mxCell>
        <mxCell id="iS7uTXhmOtBCeSAI_-wE-21" value="Output" style="whiteSpace=wrap;html=1;fontSize=8;fontFamily=Verdana;rounded=1;shadow=0;labelBackgroundColor=none;strokeWidth=1;" vertex="1" parent="iS7uTXhmOtBCeSAI_-wE-12">
          <mxGeometry x="380" y="50" width="120" height="60" as="geometry" />
        </mxCell>
        <mxCell id="iS7uTXhmOtBCeSAI_-wE-24" style="edgeStyle=orthogonalEdgeStyle;rounded=0;orthogonalLoop=1;jettySize=auto;html=1;entryX=0.644;entryY=0.045;entryDx=0;entryDy=0;entryPerimeter=0;" edge="1" parent="iS7uTXhmOtBCeSAI_-wE-12" source="iS7uTXhmOtBCeSAI_-wE-21" target="iS7uTXhmOtBCeSAI_-wE-17">
          <mxGeometry relative="1" as="geometry" />
        </mxCell>
        <mxCell id="2b4e8129b02d487f-9" value="Final Report&amp;nbsp;" style="rounded=1;whiteSpace=wrap;html=1;shadow=0;labelBackgroundColor=none;strokeWidth=1;fontFamily=Verdana;fontSize=8;align=center;" parent="iS7uTXhmOtBCeSAI_-wE-12" vertex="1">
          <mxGeometry x="540" y="50" width="110" height="60" as="geometry" />
        </mxCell>
        <mxCell id="iS7uTXhmOtBCeSAI_-wE-38" value="" style="endArrow=classic;html=1;rounded=0;entryX=0.844;entryY=1.286;entryDx=0;entryDy=0;entryPerimeter=0;exitX=0.853;exitY=0.121;exitDx=0;exitDy=0;exitPerimeter=0;" edge="1" parent="iS7uTXhmOtBCeSAI_-wE-12">
          <mxGeometry width="50" height="50" relative="1" as="geometry">
            <mxPoint x="571.2" y="230.33000000000015" as="sourcePoint" />
            <mxPoint x="571.0800000000002" y="180" as="targetPoint" />
          </mxGeometry>
        </mxCell>
        <mxCell id="iS7uTXhmOtBCeSAI_-wE-40" value="" style="endArrow=classic;html=1;rounded=0;entryX=0.432;entryY=0.986;entryDx=0;entryDy=0;entryPerimeter=0;exitX=0.873;exitY=-0.093;exitDx=0;exitDy=0;exitPerimeter=0;" edge="1" parent="iS7uTXhmOtBCeSAI_-wE-12" source="iS7uTXhmOtBCeSAI_-wE-17" target="2b4e8129b02d487f-9">
          <mxGeometry width="50" height="50" relative="1" as="geometry">
            <mxPoint x="310" y="140" as="sourcePoint" />
            <mxPoint x="360" y="90" as="targetPoint" />
          </mxGeometry>
        </mxCell>
        <mxCell id="iS7uTXhmOtBCeSAI_-wE-1" value="GCP" style="swimlane;html=1;startSize=20;horizontal=0;" vertex="1" parent="2b4e8129b02d487f-1">
          <mxGeometry y="400" width="690" height="100" as="geometry">
            <mxRectangle y="320" width="680" height="30" as="alternateBounds" />
          </mxGeometry>
        </mxCell>
        <mxCell id="iS7uTXhmOtBCeSAI_-wE-13" value="SFTP" style="whiteSpace=wrap;html=1;fontSize=8;fontFamily=Verdana;rounded=1;shadow=0;labelBackgroundColor=none;strokeWidth=1;arcSize=50;" vertex="1" parent="iS7uTXhmOtBCeSAI_-wE-1">
          <mxGeometry x="230" y="30" width="400" height="50" as="geometry" />
        </mxCell>
        <mxCell id="2b4e8129b02d487f-24" style="edgeStyle=orthogonalEdgeStyle;rounded=0;html=1;labelBackgroundColor=none;startArrow=none;startFill=0;startSize=5;endArrow=classicThin;endFill=1;endSize=5;jettySize=auto;orthogonalLoop=1;strokeWidth=1;fontFamily=Verdana;fontSize=8" parent="2b4e8129b02d487f-1" source="2b4e8129b02d487f-6" target="2b4e8129b02d487f-12" edge="1">
          <mxGeometry relative="1" as="geometry" />
        </mxCell>
        <mxCell id="iS7uTXhmOtBCeSAI_-wE-5" style="edgeStyle=orthogonalEdgeStyle;rounded=0;orthogonalLoop=1;jettySize=auto;html=1;entryX=0.5;entryY=0;entryDx=0;entryDy=0;" edge="1" parent="2b4e8129b02d487f-1" source="2b4e8129b02d487f-12" target="2b4e8129b02d487f-14">
          <mxGeometry relative="1" as="geometry">
            <mxPoint x="155" y="440" as="targetPoint" />
          </mxGeometry>
        </mxCell>
        <mxCell id="2b4e8129b02d487f-4" value="Field Engineer" style="swimlane;html=1;startSize=20;horizontal=0;" parent="2b4e8129b02d487f-1" vertex="1">
          <mxGeometry y="500" width="690" height="110" as="geometry">
            <mxRectangle y="320" width="680" height="30" as="alternateBounds" />
          </mxGeometry>
        </mxCell>
        <mxCell id="iS7uTXhmOtBCeSAI_-wE-8" value="" style="edgeStyle=orthogonalEdgeStyle;rounded=0;orthogonalLoop=1;jettySize=auto;html=1;" edge="1" parent="2b4e8129b02d487f-4" source="2b4e8129b02d487f-14" target="iS7uTXhmOtBCeSAI_-wE-7">
          <mxGeometry relative="1" as="geometry" />
        </mxCell>
        <mxCell id="2b4e8129b02d487f-14" value="UE" style="rounded=1;whiteSpace=wrap;html=1;shadow=0;labelBackgroundColor=none;strokeWidth=1;fontFamily=Verdana;fontSize=8;align=center;" parent="2b4e8129b02d487f-4" vertex="1">
          <mxGeometry x="120" y="20.00000000000003" width="70" height="40" as="geometry" />
        </mxCell>
        <mxCell id="iS7uTXhmOtBCeSAI_-wE-11" value="" style="edgeStyle=orthogonalEdgeStyle;rounded=0;orthogonalLoop=1;jettySize=auto;html=1;" edge="1" parent="2b4e8129b02d487f-4" source="iS7uTXhmOtBCeSAI_-wE-7" target="iS7uTXhmOtBCeSAI_-wE-10">
          <mxGeometry relative="1" as="geometry" />
        </mxCell>
        <mxCell id="iS7uTXhmOtBCeSAI_-wE-7" value="Start Static DT&amp;nbsp;" style="whiteSpace=wrap;html=1;fontSize=8;fontFamily=Verdana;rounded=1;shadow=0;labelBackgroundColor=none;strokeWidth=1;" vertex="1" parent="2b4e8129b02d487f-4">
          <mxGeometry x="245" y="20" width="70" height="40" as="geometry" />
        </mxCell>
        <mxCell id="iS7uTXhmOtBCeSAI_-wE-10" value="Upload Logs to SFPT&amp;nbsp;" style="whiteSpace=wrap;html=1;fontSize=8;fontFamily=Verdana;rounded=1;shadow=0;labelBackgroundColor=none;strokeWidth=1;" vertex="1" parent="2b4e8129b02d487f-4">
          <mxGeometry x="395" y="20" width="70" height="40" as="geometry" />
        </mxCell>
        <mxCell id="iS7uTXhmOtBCeSAI_-wE-45" style="edgeStyle=orthogonalEdgeStyle;rounded=0;orthogonalLoop=1;jettySize=auto;html=1;entryX=0.5;entryY=1;entryDx=0;entryDy=0;" edge="1" parent="2b4e8129b02d487f-4" source="iS7uTXhmOtBCeSAI_-wE-31" target="2b4e8129b02d487f-14">
          <mxGeometry relative="1" as="geometry">
            <Array as="points">
              <mxPoint x="545" y="85" />
              <mxPoint x="155" y="85" />
            </Array>
          </mxGeometry>
        </mxCell>
        <mxCell id="iS7uTXhmOtBCeSAI_-wE-31" value="" style="strokeWidth=2;html=1;shape=mxgraph.flowchart.decision;whiteSpace=wrap;" vertex="1" parent="2b4e8129b02d487f-4">
          <mxGeometry x="520" y="15" width="50" height="50" as="geometry" />
        </mxCell>
        <mxCell id="iS7uTXhmOtBCeSAI_-wE-18" value="" style="edgeStyle=orthogonalEdgeStyle;rounded=0;orthogonalLoop=1;jettySize=auto;html=1;" edge="1" parent="2b4e8129b02d487f-1" source="iS7uTXhmOtBCeSAI_-wE-13" target="iS7uTXhmOtBCeSAI_-wE-17">
          <mxGeometry relative="1" as="geometry" />
        </mxCell>
        <mxCell id="iS7uTXhmOtBCeSAI_-wE-25" style="edgeStyle=orthogonalEdgeStyle;rounded=0;orthogonalLoop=1;jettySize=auto;html=1;entryX=0.483;entryY=0.133;entryDx=0;entryDy=0;entryPerimeter=0;exitX=0.677;exitY=1.114;exitDx=0;exitDy=0;exitPerimeter=0;" edge="1" parent="2b4e8129b02d487f-1" source="iS7uTXhmOtBCeSAI_-wE-17" target="iS7uTXhmOtBCeSAI_-wE-31">
          <mxGeometry relative="1" as="geometry" />
        </mxCell>
        <mxCell id="iS7uTXhmOtBCeSAI_-wE-33" style="edgeStyle=orthogonalEdgeStyle;rounded=0;orthogonalLoop=1;jettySize=auto;html=1;entryX=1;entryY=0.5;entryDx=0;entryDy=0;exitX=1;exitY=0.5;exitDx=0;exitDy=0;exitPerimeter=0;" edge="1" parent="2b4e8129b02d487f-1" source="iS7uTXhmOtBCeSAI_-wE-31" target="iS7uTXhmOtBCeSAI_-wE-13">
          <mxGeometry relative="1" as="geometry">
            <Array as="points">
              <mxPoint x="670" y="540" />
              <mxPoint x="670" y="455" />
            </Array>
          </mxGeometry>
        </mxCell>
        <mxCell id="iS7uTXhmOtBCeSAI_-wE-42" value="" style="edgeStyle=orthogonalEdgeStyle;rounded=0;orthogonalLoop=1;jettySize=auto;html=1;" edge="1" parent="2b4e8129b02d487f-1" source="2b4e8129b02d487f-9" target="iS7uTXhmOtBCeSAI_-wE-41">
          <mxGeometry relative="1" as="geometry" />
        </mxCell>
        <mxCell id="2b4e8129b02d487f-16" value="" style="shape=mxgraph.bpmn.shape;html=1;verticalLabelPosition=bottom;labelBackgroundColor=#ffffff;verticalAlign=top;perimeter=rhombusPerimeter;background=gateway;outline=none;symbol=parallelGw;rounded=1;shadow=0;strokeWidth=1;fontFamily=Verdana;fontSize=8;align=center;" parent="1" vertex="1">
          <mxGeometry x="880" y="490.00000000000006" width="30" height="30" as="geometry" />
        </mxCell>
      </root>
    </mxGraphModel>
  </diagram>
</mxfile>
